# xmcd
#
# Track frame offsets:
# 150
# 22667
# 48885
# 78212
# 101012
# 125282
# 162467
# 186847
# 206640
# 233417
# 256155
# 278872
#
# Disc length: 4085 seconds
#
#
# Revision: 2
# Processed by: cddbd v1.5.2PL0 Copyright (c) Steve Scherf et al.
# Submitted via: FreeRIP 2.944 
#
DISCID=8f0ff30c
DTITLE=Klaus Doldinger's Passport - Move
DYEAR=1998
DGENRE=Jazz
TTITLE0=Tranceport
TTITLE1=Mr. Handy Man
TTITLE2=Inside Out
TTITLE3=Lunatic Dancing
TTITLE4=Isar Valley Crocodile
TTITLE5=Move
TTITLE6=Lucky Loser
TTITLE7=Wanderlust
TTITLE8=Echoes Of Yesterday
TTITLE9=One Six Fits All
TTITLE10=For The Ones I Love
TTITLE11=Had To Have
EXTD=YEAR: 1998
EXTT0=
EXTT1=
EXTT2=
EXTT3=
EXTT4=
EXTT5=
EXTT6=
EXTT7=
EXTT8=
EXTT9=
EXTT10=
EXTT11=
PLAYORDER=
